<?xml version="1.0" encoding="UTF-8"?>
<svg width="957px" height="980px" viewBox="0 0 957 980" version="1.1" xmlns="http://www.w3.org/2000/svg" xmlns:xlink="http://www.w3.org/1999/xlink">
    <!-- Generator: Sketch 58 (84663) - https://sketch.com -->
    <title>Positive</title>
    <desc>Created with Sketch.</desc>
    <defs>
        <path d="M458.53125,342.90625 C453.160235,335.55645 444.889192,323.769828 436.508406,312.830292 C429.741618,303.997525 422.903285,295.716992 417.462139,290.769996 C376.093964,253.159604 323.022036,235.155888 298.151558,299.40937 C287.039084,328.119345 300.281275,357.011427 313.826723,382.308444 C344.996347,440.521219 373.841698,463.704958 411.377627,520.089041 C435.233788,555.921981 466,622 471.768556,622 C477.537112,622 529.451642,558.096193 556.807021,520.089041 C601.021512,458.646108 640.894869,386.48653 637.834611,306.131422 C636.352948,267.364681 620.407759,241.251989 614.799595,230.689754 C598.951338,200.831048 552.45204,192.306616 512.329432,230.689754 C479.76746,261.835676 461.943922,347.577342 458.53125,342.90625 Z" id="path-1"></path>
    </defs>
    <g id="Handoff" stroke="none" stroke-width="1" fill="none" fill-rule="evenodd">
        <g id="Artboard" transform="translate(-274.000000, -262.000000)">
            <g id="Positive" transform="translate(282.000000, 270.000000)">
                <path d="M363.240636,14.6432097 C371.352598,12.9571533 379.447268,10.4543917 389.916457,8.7136112 C414.801533,4.57605377 444.646608,1.52050951 459.083936,0.746752327 C484.482234,-0.614423022 530.278022,0.187042565 544.222186,0.786236803 C583.460897,2.80548675 624.657047,8.18853694 664.504431,19.3314716 C703.985228,30.3704998 742.103426,47.0717403 775.926323,71.0609839 C810.655314,95.729776 840.895336,128.040546 865.754128,163.75945 C890.97259,200.002735 910.657655,239.742821 923.958561,278.422367 C939.071655,322.671303 943.947963,378.739259 939.320658,433.914311 C934.672604,489.329041 920.465603,543.796836 897.979256,584.465846 C864.052608,645.81918 818.270654,690.817628 772.917538,723.527399 C711.877238,767.549126 650.961439,787.263655 622.837942,798.776497 C619.863741,799.98874 618.695363,800.010612 611.300807,803.881771 C603.90625,807.75293 581.685209,855.037597 557.214844,897.503906 C538.051927,930.759573 520.496194,958.768487 518.682684,960.225726 C513.737209,964.194954 508.99232,964.624435 505.208859,963.405265 C503.825509,962.955003 502.670412,962.345419 501.708984,961.625 C500.477803,960.703696 499.481792,959.567651 498.720949,958.140668 C498.105359,956.976915 496.576757,948.858353 495.476995,936.098633 C492.136205,897.459263 493.045168,869.647668 489.759713,829.366575 C489.60217,827.446936 487.245643,825.168739 484.555597,823.558367 C482.285292,822.199268 479.777429,821.315846 478.15341,821.525097 C397.765583,831.894967 335.126822,829.802983 287.175084,824.489896 C206.749907,815.588571 159.154381,783.994064 142.377118,772.425805 C104.85376,746.539229 76.7959725,715.949151 50.1471263,670.957629 C23.098492,625.287252 4.85280281,574.816394 1.37852035,529.894144 C-0.772588238,502.061053 -0.383867007,472.184466 2.38836554,442.564875 C5.16820652,412.866315 10.3419339,383.426828 17.7234873,356.562145 C31.6524341,305.864771 57.8378583,252.900156 92.167753,204.730481 C125.417943,158.075763 166.288315,115.92851 210.779604,84.5494349 C224.238212,75.0738535 240.760248,64.6083893 257.73533,55.0337502 C274.906157,45.3482776 292.539022,36.5744115 307.954378,30.6011723 C326.137125,23.5542324 344.564725,18.5258498 363.240636,14.6432097 Z" id="Path" stroke="#3A3A3A" stroke-width="15"></path>
                <mask id="mask-2" fill="white">
                    <use xlink:href="#path-1"></use>
                </mask>
                <use id="Path" fill="#3A3A3A" xlink:href="#path-1"></use>
            </g>
        </g>
    </g>
</svg>