<?xml version="1.0" encoding="UTF-8"?>
<svg width="957px" height="980px" viewBox="0 0 957 980" version="1.1" xmlns="http://www.w3.org/2000/svg" xmlns:xlink="http://www.w3.org/1999/xlink">
    <!-- Generator: Sketch 58 (84663) - https://sketch.com -->
    <title>negative</title>
    <desc>Created with Sketch.</desc>
    <defs>
        <path d="M826.222186,270.786237 C865.460897,272.805487 906.657047,278.188537 946.504431,289.331472 C985.985228,300.3705 1024.10343,317.07174 1057.92632,341.060984 C1092.65531,365.729776 1122.89534,398.040546 1147.75413,433.75945 C1172.97259,470.002735 1192.65765,509.742821 1205.95856,548.422367 C1221.07166,592.671303 1225.94796,648.739259 1221.32066,703.914311 C1216.6726,759.329041 1202.4656,813.796836 1179.97926,854.465846 C1146.05261,915.81918 1100.27065,960.817628 1054.91754,993.527399 C993.877238,1037.54913 932.961439,1057.26366 904.837942,1068.7765 C901.863741,1069.98874 900.695363,1070.01061 893.300807,1073.88177 C885.90625,1077.75293 862.222319,1125.1333 837.751953,1167.59961 C818.589037,1200.85528 802.496194,1228.76849 800.682684,1230.22573 C795.737209,1234.19495 790.99232,1234.62443 787.208859,1233.40526 C785.825509,1232.955 784.670412,1232.34542 783.708984,1231.625 C782.477803,1230.7037 781.481792,1229.56765 780.720949,1228.14067 C780.105359,1226.97692 778.576757,1218.85835 777.476995,1206.09863 C774.136205,1167.45926 775.045168,1139.64767 771.759713,1099.36658 C771.60217,1097.44694 769.245643,1095.16874 766.555597,1093.55837 C764.285292,1092.19927 761.777429,1091.31585 760.15341,1091.5251 C679.765583,1101.89497 617.126822,1099.80298 569.175084,1094.4899 C488.749907,1085.58857 441.154381,1053.99406 424.377118,1042.42581 C386.85376,1016.53923 358.795973,985.949151 332.147126,940.957629 C305.098492,895.287252 286.852803,844.816394 283.37852,799.894144 C281.227412,772.061053 281.616133,742.184466 284.388366,712.564875 C287.168207,682.866315 292.341934,653.426828 299.723487,626.562145 C313.652434,575.864771 339.837858,522.900156 374.167753,474.730481 C407.417943,428.075763 448.288315,385.92851 492.779604,354.549435 C506.238212,345.073853 522.760248,334.608389 539.73533,325.03375 C556.906157,315.348278 574.539022,306.574411 589.954378,300.601172 C608.137125,293.554232 626.564725,288.52585 645.240636,284.64321 C653.352598,282.957153 661.447268,280.454392 671.916457,278.713611 C696.801533,274.576054 726.646608,271.52051 741.083936,270.746752 C766.482234,269.385577 812.278022,270.187043 826.222186,270.786237 Z M794.329432,500.689754 C761.76746,531.835676 743.943922,617.577342 740.53125,612.90625 C730.823587,599.622096 711.642241,571.843932 699.462139,560.769996 C658.093964,523.159604 605.022036,505.155888 580.151558,569.40937 C569.039084,598.119345 582.281275,627.011427 595.826723,652.308444 C626.996347,710.521219 655.841698,733.704958 693.377627,790.089041 C717.233788,825.921981 748,892 753.768556,892 C759.537112,892 811.451642,828.096193 838.807021,790.089041 C883.021512,728.646108 922.894869,656.48653 919.834611,576.131422 C918.352948,537.364681 902.407759,511.251989 896.799595,500.689754 C880.951338,470.831048 834.45204,462.306616 794.329432,500.689754 Z" id="path-1"></path>
    </defs>
    <g id="Handoff" stroke="none" stroke-width="1" fill="none" fill-rule="evenodd">
        <g id="Artboard" transform="translate(-274.000000, -262.000000)">
            <mask id="mask-2" fill="white">
                <use xlink:href="#path-1"></use>
            </mask>
            <use id="negative" stroke="#3A3A3A" stroke-width="15" xlink:href="#path-1"></use>
        </g>
    </g>
</svg>